<?xml version="1.0" encoding="UTF-8"?>
<svg width="515px" height="469px" viewBox="0 0 515 469" version="1.1" xmlns="http://www.w3.org/2000/svg" xmlns:xlink="http://www.w3.org/1999/xlink">
    <title>svg2</title>
    <g id="Page-1" stroke="none" stroke-width="1" fill="none" fill-rule="evenodd">
        <g id="svg2" transform="translate(-184, -207)">
            <path d="M667.093958,226.493915 C661.309663,240.747478 655.110786,254.739942 649.622632,269.110466 C648.634223,271.700204 647.707954,275.451535 644.299798,275.451535 L631.823394,275.451535 C628.591693,275.686859 629.089518,275.429731 627.340159,273.218833 L619.563782,263.393607 L579.422577,274.600644 C575.878848,275.589677 573.892763,277.339114 572.103066,281.920155 C545.233556,350.673611 515.783652,418.403694 488.84873,487.131998 C487.302301,491.077694 485.50069,493.219832 480.912407,492.860149 C447.074426,490.203053 413.811752,488.07353 381.953938,479.161335 C377.651206,477.95738 379.169213,478.788413 375.578528,474.419569 C374.851997,473.534961 367.55756,464.020516 367.993946,462.961322 C383.768787,424.699053 410.568837,388.509462 425.620416,349.954945 C423.022736,348.916309 420.425834,347.878296 417.828154,346.83966 C406.754041,354.471198 395.679929,362.102813 384.605816,369.734351 C306.633355,427.73966 288.904823,475.394741 358.266525,508.088883 C454.005208,534.031502 566.202355,529.9873 689.391617,518.841702 L698.009617,534.465863 C680.693643,576.484758 661.22167,617.52708 644.892781,659.938754 C641.912368,667.680011 637.797459,670.1633 629.998578,670.836957 C516.512909,680.645052 414.379661,674.975772 325.208806,644.681519 C215.955006,607.564335 156.026452,521.176881 222.4012,424.172104 C268.544971,356.733646 336.618774,315.086348 412.758554,285.036764 C489.804045,254.62882 577.109202,219.218713 657.964271,210.135981 L666.692692,221.96972 C668.204702,224.01927 667.234125,226.147469 667.093958,226.493915 Z" id="path1" stroke="#009EE0" stroke-width="0.216" fill="#1B1918"></path>
            <path d="M650.22496,207.847758 C656.936848,207.199798 659.2211,208.610732 657.382423,213.140223 C651.597427,227.394409 645.399251,241.385471 639.911097,255.756774 C638.922064,258.346434 637.991123,261.041919 634.588262,261.246874 C630.437612,261.496761 626.259161,260.944737 622.111859,261.246874 C618.879534,261.482277 617.856083,260.137454 618.843169,257.495543 C619.683469,255.245009 621.266887,253.070555 621.945216,250.766446 C623.193479,246.525855 620.819988,246.004279 617.120908,247.107002 L569.711042,261.246874 C566.183822,262.298125 564.181928,263.985344 562.391531,268.566385 C535.52202,337.320542 506.072116,405.049924 479.137195,473.778306 C477.590766,477.724002 475.789155,479.866763 471.200872,479.506456 C437.362268,476.849283 403.79146,473.543605 371.73204,465.381769 C365.763269,463.862439 367.630291,459.978961 369.501986,455.467303 C385.801127,416.180259 400.362824,376.193082 415.908881,336.601175 C419.153742,328.337563 415.892995,328.164379 408.116696,333.48589 C397.018054,341.08114 385.968393,348.749043 374.894281,356.380581 C296.92182,414.38589 279.193288,462.041049 348.555068,494.735191 C444.293672,520.677732 558.475581,525.176775 681.664843,514.030632 C690.377379,513.242505 692.067323,513.873256 688.298082,521.112093 C670.982108,563.130988 651.510212,604.173388 635.181324,646.584984 C632.200832,654.326319 628.085924,656.80953 620.287121,657.483265 C506.801373,667.291282 404.668125,661.622002 315.497271,631.327827 C206.243549,594.210643 146.314995,507.823111 212.689665,410.818411 C258.833435,343.379876 326.907238,301.733201 403.047018,271.682994 C483.484858,239.936302 565.600027,216.018159 650.22496,207.847758 Z" id="path2" fill="#F33A2C"></path>
        </g>
    </g>
</svg>